<svg width="486" height="213" viewBox="0 0 486 213" fill="none" xmlns="http://www.w3.org/2000/svg">
<path d="M136.93 131.83C135.81 131.33 130.71 129 130.05 128.71C128.93 128.21 127.94 128.69 127.48 129.6C125.9 132.71 123.36 134.94 119.13 134.94C114.9 134.94 112.05 132.66 110.83 128.84C110.18 126.8 109.94 124.85 109.94 116.96C109.94 109.07 110.18 107.11 110.83 105.07C112.05 101.25 114.82 98.97 119.13 98.97C123.44 98.97 125.96 101.26 127.54 104.43C128.08 105.51 129.3 105.53 129.94 105.24C130.29 105.08 136.25 102.4 137.01 102.06C138.09 101.57 138.19 100.31 137.89 99.64C134.62 92.54 127.98 88.39 119.05 88.39C109.37 88.39 102.29 92.95 99.36 101.98C98.14 105.56 97.81 108.41 97.81 116.96C97.81 125.51 98.14 128.35 99.36 131.93C102.29 140.96 109.37 145.52 119.05 145.52C128.73 145.52 134.77 142.07 137.86 134.34C138.29 133.64 138.08 132.35 136.94 131.84L136.93 131.83ZM166.33 88.39C156.65 88.39 149 92.87 146.15 101.82C144.93 105.64 144.6 108.74 144.6 116.96C144.6 125.18 144.93 128.27 146.15 132.09C149 141.04 156.65 145.52 166.33 145.52C176.01 145.52 183.66 141.05 186.51 132.09C187.73 128.27 188.06 125.18 188.06 116.96C188.06 108.74 187.73 105.64 186.51 101.82C183.66 92.87 176.01 88.39 166.33 88.39ZM175.04 128.84C173.82 132.66 170.89 134.94 166.33 134.94C161.77 134.94 158.84 132.66 157.62 128.84C156.97 126.89 156.73 124.2 156.73 116.96C156.73 109.72 156.97 107.03 157.62 105.07C158.84 101.25 161.77 98.97 166.33 98.97C170.89 98.97 173.82 101.25 175.04 105.07C175.69 107.03 175.94 109.71 175.94 116.96C175.94 124.21 175.7 126.88 175.04 128.84ZM339.76 89.29H300.89C299.96 89.29 299.04 90.03 299.04 91.14V98.11C299.04 99.08 299.82 99.96 300.89 99.96H314.34V142.79C314.34 143.79 315.16 144.64 316.19 144.64H324.46C325.45 144.64 326.31 143.82 326.31 142.79V99.96H339.76C340.8 99.96 341.61 99.1 341.61 98.11V91.14C341.61 89.99 340.65 89.29 339.76 89.29ZM426.07 121.84C432.17 119.15 435.91 113.54 435.91 106.46C435.91 96.37 428.42 89.29 417.11 89.29H396.09C395.04 89.29 394.24 90.16 394.24 91.14V142.78C394.24 143.81 395.08 144.63 396.09 144.63H404.36C405.42 144.63 406.21 143.76 406.21 142.78V123.55H414.11L423.52 143.57C423.76 144.14 424.46 144.62 425.19 144.62H434.46C435.97 144.62 436.67 143.08 436.09 141.9L426.07 121.84ZM416.46 113.37H406.21V99.62H416.46C421.02 99.62 423.95 102.3 423.95 106.46C423.95 110.62 421.02 113.37 416.46 113.37ZM86.85 89.28H79.72C78.7 89.28 77.87 90.14 77.87 91.13V122.92L58.03 90.26C57.67 89.62 57.06 89.29 56.41 89.29H47.82C46.8 89.29 45.97 90.12 45.97 91.14V142.78C45.97 143.8 46.8 144.63 47.82 144.63H54.95C55.97 144.63 56.8 143.8 56.8 142.78V111.07L76.76 143.72C77.09 144.29 77.69 144.62 78.34 144.62H86.85C87.87 144.62 88.7 143.79 88.7 142.77V91.13C88.7 90.11 87.87 89.28 86.85 89.28ZM35.26 89.28H1.85C0.83 89.28 0 90.11 0 91.13V142.77C0 143.79 0.83 144.62 1.85 144.62H35.27C36.29 144.62 37.12 143.79 37.12 142.77V136.13C37.12 135.11 36.29 134.28 35.27 134.28H11.96V121.83H31.27C32.29 121.83 33.12 121 33.12 119.98V113.42C33.12 112.4 32.29 111.57 31.27 111.57H11.96V99.61H35.26C36.28 99.61 37.11 98.78 37.11 97.76V91.12C37.11 90.1 36.28 89.27 35.26 89.27V89.28ZM383.53 89.28H350.11C349.09 89.28 348.26 90.11 348.26 91.13V142.77C348.26 143.79 349.09 144.62 350.11 144.62H383.53C384.55 144.62 385.38 143.79 385.38 142.77V136.13C385.38 135.11 384.55 134.28 383.53 134.28H360.23V121.83H379.54C380.56 121.83 381.39 121 381.39 119.98V113.42C381.39 112.4 380.56 111.57 379.54 111.57H360.23V99.61H383.53C384.55 99.61 385.38 98.78 385.38 97.76V91.12C385.38 90.1 384.55 89.27 383.53 89.27V89.28ZM467.97 111.33L465.04 110.92C458.69 110.02 456.41 107.99 456.41 104.82C456.41 101.32 458.93 98.8 463.82 98.8C468.09 98.8 471.93 100.09 475.89 102.53C476.68 103.01 477.8 102.83 478.37 101.98C479.21 100.72 482.04 96.49 482.26 96.16C482.82 95.33 482.67 94.17 481.79 93.56C477.19 90.34 470.72 88.39 463.82 88.39C451.86 88.39 444.21 95.14 444.21 105.32C444.21 115.5 450.48 120.37 461.71 121.92L464.64 122.33C471.23 123.22 473.19 125.26 473.19 128.52C473.19 132.42 469.93 135.11 464.16 135.11C458.39 135.11 453.96 132.68 450.37 129.96C449.56 129.35 448.54 129.42 447.84 130.2C447.46 130.62 443.1 135.63 442.85 135.92C442.14 136.73 442.19 137.85 442.96 138.53C447.42 142.42 455.43 145.54 463.67 145.54C477.99 145.54 485.4 138.13 485.4 128.13C485.4 118.13 479.38 112.91 467.99 111.37L467.97 111.33ZM239.31 124.27V105.13C239.31 96.57 238.73 91.33 236.44 84.75C240.73 73.18 237.21 61.64 227.27 47.41C225.22 44.47 223.39 41.25 221.94 37.9C222.55 36.37 223.25 34.74 224.02 32.95C229.09 21.25 233.33 11.99 230.87 0C230.87 14.48 225.98 23.31 219.92 32.3C217.82 24.94 217.85 17.35 221.61 11C213.36 20.66 215.87 36.87 223.26 48.59C228.85 57.45 231.52 65.86 230.37 72.93C229.6 71.76 228.8 70.6 227.97 69.44C220.53 59.03 218.26 53.33 219.27 46.67C219.42 45.69 219.36 45.46 219.02 44.63C218.1 42.35 217.33 39.97 216.76 37.56C210.81 49.15 212.72 58.81 220.38 71.35C226.47 81.31 227.33 91.73 227.33 102.42V124.59C227.33 131.18 223.67 134.92 218.13 134.92C212.59 134.92 208.85 131.18 208.85 124.59V91.12C208.85 89.96 207.86 89.27 207 89.27H198.73C197.7 89.27 196.88 90.12 196.88 91.12V124.27C196.88 138.02 205.67 145.51 218.12 145.51C230.57 145.51 239.28 138.03 239.28 124.27H239.31ZM290.52 89.27H283.39C282.37 89.27 281.54 90.13 281.54 91.12V122.91L261.7 90.25C261.34 89.61 260.73 89.28 260.08 89.28H251.49C250.47 89.28 249.64 90.11 249.64 91.13V130.39C249.64 142.05 247.32 147.27 236.11 160.23C227.06 170.69 221.29 178.52 222.67 190.04C223.34 177.29 231.44 171.4 240.52 162.8C242.06 161.34 243.52 159.97 244.89 158.62C244.35 161.34 244.23 164.12 244.93 166.78C247.61 177 256.14 182.36 262.31 185.25C260.09 183.71 257.57 181.72 255.27 179.23C255.66 178.1 256.1 176.94 256.59 175.73C260.94 164.98 260.47 150.23 260.47 145.15V111.05L280.44 143.7C280.77 144.27 281.37 144.6 282.02 144.6H290.53C291.55 144.6 292.38 143.77 292.38 142.75V91.11C292.38 90.09 291.55 89.26 290.53 89.26L290.52 89.27ZM251.51 174.2C249.82 171.32 248.6 167.99 248.26 164.14C247.85 159.52 249.77 154.97 252.07 150.99C252.8 158.71 253.27 166.02 251.52 174.2H251.51ZM254.17 182.69C254.38 181.97 254.14 181.41 253.71 181.14C252.6 180.45 251.5 179.69 250.44 178.83C246.38 198.1 253.5 208.18 263.12 212.48C254.73 204.39 249.92 197.49 254.16 182.69H254.17Z" fill="white"/>
</svg>
