<svg width="700" height="84" viewBox="0 0 700 84" fill="none" xmlns="http://www.w3.org/2000/svg">
<g filter="url(#filter0_d_112_69)">
<path d="M387.906 36.1576L387.891 36.2956L387.887 36.4384L387.895 36.5868L387.914 36.7408V36.7427L387.912 36.7981L387.888 36.8479L387.847 36.8855L387.795 36.9043L387.596 36.9296L387.406 36.9447L387.224 36.9512L387.051 36.9484L386.789 36.939L386.529 36.9362H383.726L380.891 36.9287H380.705L378.211 36.939L375.718 36.9343L375.373 36.9372L375.054 36.9484L374.836 36.9531L374.541 36.9456L374.175 36.9381H373.327L372.452 36.939L371.812 36.9522L371.437 36.9569L371.009 36.9456L370.621 36.9325L370.213 36.9278L369.786 36.9296L369.338 36.939L368.939 36.9475L368.531 36.9503L367.682 36.939L366.995 36.9296L366.062 36.9372L364.959 36.9428L363.981 36.9447L363.287 36.9456L362.395 36.9409L360.008 36.9109L359.614 36.9137L359.223 36.9362L359.103 36.9428H358.973L358.63 36.924L358.356 36.9071L358.154 36.9052L356.103 36.9541L356.021 36.9522L355.909 36.9419L355.804 36.9315L355.726 36.9287L354.21 36.94L352.785 36.9372L351.411 36.9325L349.997 36.9381L347.439 36.9447L346.865 36.9522H346.665L346.394 36.9428L346.002 36.9315H345.417L344.532 36.9334L343.886 36.9503L343.477 36.9569L343.005 36.9447L342.684 36.9343L342.33 36.9287L341.402 36.9325L340.593 36.9372L340.001 36.9287L339.291 36.9193L338.311 36.9306L337.514 36.9409L336.942 36.939L336.242 36.9343L335.297 36.939L334.442 36.9428L333.814 36.94L333.107 36.9362L332.146 36.939L331.187 36.9419L330.5 36.9372L329.985 36.9353L329.289 36.9409L328.485 36.9465L327.896 36.9409L327.022 36.9325L326.091 36.9409L325.217 36.9494L324.287 36.9447L323.595 36.9409L322.828 36.9456L322.114 36.9484L321.371 36.9409L320.732 36.9362L319.861 36.9428L318.844 36.9484L318.109 36.9381L317.667 36.9296L317.232 36.9268L316.804 36.9306L316.383 36.9409L316.019 36.9456L315.526 36.9381L315.131 36.9315L314.845 36.9325L313.937 36.9372L313.033 36.924L313.007 36.9184L312.984 36.9024L312.969 36.8799L312.965 36.8526L312.98 36.0552L312.987 36.0176L313.008 35.9857L313.037 35.9641L313.074 35.9537L313.315 35.9312L313.556 35.903L313.655 35.8936L313.761 35.8899L313.871 35.8917L313.987 35.9002L314.215 35.918L314.442 35.9284L314.669 35.9321L314.894 35.9274L315.228 35.9415L315.389 35.9443L315.551 35.9406L315.875 35.9293L316.23 35.9246L316.615 35.9274L317.032 35.9368L317.802 35.9528H318.555L319.294 35.9378L320.017 35.9077L320.082 35.9124L320.163 35.9331L320.237 35.9528L320.294 35.9575L321.542 35.9321L322.763 35.9265L322.884 35.9227L323.006 35.9096L323.061 35.9049L323.121 35.9068L323.278 35.9303L323.405 35.9519L323.502 35.9566L324.546 35.9378L325.582 35.9331L326.609 35.9406L327.628 35.9613L327.666 35.9584L327.717 35.9443L327.778 35.9265L327.824 35.9237L328.279 35.9312L328.737 35.9218L328.794 35.9199L329.213 35.9115L329.633 35.9162L330.218 35.9284L330.806 35.9331L331.399 35.9303L331.995 35.9209L332.341 35.9162L332.688 35.918L333.917 35.9227L335.216 35.9284L335.712 35.9368L336.165 35.9509L336.642 35.9622L337.128 35.9584L337.359 35.9622L337.669 35.9857L337.967 36.0073L338.039 36.0035L338.105 35.9857L338.171 35.949L338.227 35.8983L338.273 35.8326L338.308 35.7565L338.399 35.5236L338.501 35.3028L338.615 35.0962L338.742 34.9027L338.848 34.7487L338.951 34.5871L339.15 34.2461L339.288 34.0132L339.456 33.7643L339.656 33.4994L339.94 33.1444L340.188 32.8372L340.336 32.656L340.492 32.4747L340.656 32.2934L340.829 32.1121L341.248 31.697L341.65 31.3269L341.844 31.1588L342.035 31.0019L342.221 30.8573L342.403 30.7229L342.955 30.3397L343.441 30.0241L343.667 29.8861L343.884 29.7593L344.091 29.6465L344.289 29.546L344.831 29.2727L345.384 28.9797L345.515 28.9148L345.647 28.8604L345.78 28.8181L345.914 28.7871L346.11 28.7401L346.372 28.6594L346.572 28.5955L346.722 28.5542L347.185 28.4452L347.613 28.355L348.006 28.2827L348.366 28.2292L348.647 28.1888L348.904 28.1437L349.135 28.0939L349.341 28.0404L349.396 28.0263L349.507 28.0075L349.621 28L349.744 28.0019L349.913 28.015L350.119 28.0301L350.275 28.0282L350.419 28.0216H350.565L350.71 28.0272L350.857 28.0385L352.039 28.1503L352.353 28.1832L352.679 28.2282L353.022 28.2855L353.381 28.356L353.756 28.4386L354.158 28.5354L354.591 28.6481L355.079 28.7824L355.268 28.8472L355.358 28.8876L355.445 28.9318L355.766 29.1046L356.087 29.2671L356.408 29.4192L356.729 29.562L356.903 29.6428L357.065 29.7301L357.217 29.825L357.359 29.9283L357.485 30.0222L357.625 30.119L358.007 30.3547L358.4 30.599L358.543 30.6985L358.672 30.7962L358.988 31.0564L359.297 31.3231L359.598 31.5983L359.892 31.882L360.113 32.1046L360.329 32.3329L360.541 32.5649L360.749 32.8015L360.952 33.0429L361.15 33.289L361.346 33.5389L361.535 33.7944L361.679 34.0029L361.819 34.2245L361.954 34.4594L362.084 34.7083L362.352 35.2296L362.632 35.7537L362.675 35.8213L362.722 35.8748L362.775 35.919L362.831 35.95L362.91 35.9725L362.994 35.9772L363.085 35.9641L363.185 35.9321L363.218 35.9237L363.251 35.9227L363.49 35.9397L363.752 35.9472L364.039 35.9481L364.425 35.9397L364.848 35.9312L365.699 35.9293L366.582 35.9406L366.885 35.9472L367.851 35.9659L368.74 35.9669L369.648 35.9641L370.599 35.9706L371.159 35.9735L371.705 35.9669L372.239 35.9519L372.759 35.9274H372.886L373.024 35.9434L373.154 35.9584L373.288 35.9613L374.299 35.9406L375.309 35.9284L375.732 35.9321L376.16 35.95L376.436 35.9556L376.808 35.9425L377.09 35.9321L377.296 35.9303L377.607 35.9321L378.053 35.9284L378.498 35.918L378.889 35.9124L379.248 35.9209L379.368 35.9265L379.866 35.9453L380.233 35.9443L380.934 35.9274L381.623 35.9237L381.877 35.919L382.075 35.9134L382.277 35.9152L382.842 35.9274L383.421 35.9312L384.015 35.9274L384.625 35.9162L385.175 35.9105L385.733 35.9218L386.839 35.9528L387.39 35.9556L387.686 35.9547L387.991 35.9603L388.022 35.9659L388.038 35.9782L388.04 35.9988L388.027 36.027L388.001 36.0599L387.956 36.0899L387.936 36.1012L387.922 36.1172L387.911 36.135L387.906 36.1576ZM349.574 28.9815L349.45 28.9937L349.318 29.0154L349.176 29.0463L348.983 29.0952L348.705 29.1638L348.497 29.1994L348.17 29.2427L347.856 29.2915L347.557 29.346L347.273 29.4051L347.004 29.47L346.748 29.5404L346.507 29.6165L346.281 29.6973L345.909 29.8485L345.459 30.0476L344.93 30.2956L344.321 30.5905L344.174 30.6685L344.02 30.7624L343.85 30.8751L343.622 31.0348L343.342 31.2301L343.179 31.3447L343.01 31.4772L342.833 31.6256L342.648 31.7909L342.13 32.2784L341.658 32.7414L341.231 33.1791L340.85 33.5924L340.653 33.8197L340.459 34.0602L340.266 34.3119L340.077 34.5758L339.89 34.852L339.706 35.1403L339.525 35.4409L339.346 35.7537L339.304 35.8476L339.282 35.9378L339.281 35.95L339.287 35.9922L339.311 36.0279L339.348 36.0505L339.389 36.0561L339.966 36.011L340.464 35.9829L340.925 35.9688L341.362 35.9678L342.117 35.9725L342.882 35.9659L343.658 35.949L344.443 35.9209L344.791 35.9143L345.277 35.9218L345.655 35.9284L345.933 35.9274L346.398 35.9237L346.86 35.9284L347.322 35.9274L347.768 35.9049L347.863 35.9011L347.963 35.903L348.224 35.9265L348.425 35.9462L348.574 35.9519L350.775 35.9481L350.901 35.9368L351.019 35.9256L351.111 35.9331L351.213 35.9481L351.318 35.9528L353.632 35.949L353.737 35.9434L353.881 35.9246L354.002 35.9077L354.093 35.9002L354.175 35.9021L354.251 35.9115L354.464 35.9415L354.683 35.9519L355.805 35.9528L356.956 35.9472L357.217 35.9462L357.719 35.95L358.22 35.9631L358.745 35.9876L359.222 36.0101L359.568 36.0185L359.885 36.0139L360.174 35.9969L360.407 35.9819L360.639 35.9763L360.872 35.981L361.102 35.9951L361.412 36.0289L361.478 36.0326L361.541 36.0232L361.609 35.9979L361.609 35.9969L361.649 35.9659L361.673 35.9218L361.678 35.872L361.664 35.8232L361.517 35.5508L361.357 35.2718L361.182 34.9844L360.993 34.6895L360.822 34.4415L360.631 34.187L360.42 33.924L360.19 33.6535L359.821 33.2374L359.502 32.887L359.236 32.6024L359.02 32.3845L358.792 32.1704L358.555 31.96L358.308 31.7533L358.052 31.5504L357.785 31.3513L357.508 31.1559L357.222 30.9643L356.927 30.7765L356.681 30.6365L356.322 30.4477L355.848 30.211L355.259 29.9264L355.067 29.841L354.865 29.7621L354.652 29.6897L354.428 29.624L354.05 29.5179L353.651 29.4051L353.357 29.3328L353.085 29.2783L352.83 29.2427L352.524 29.1976L352.108 29.114L351.817 29.0529L351.604 29.0144L351.412 28.9881L351.233 28.9721L350.841 28.9562L350.434 28.9524L350.011 28.9609L349.574 28.9815Z" fill="#D5A829"/>
<path d="M376.438 41.1679L376.63 41.166L376.803 41.1717L377.114 41.1867L377.446 41.1951L377.799 41.1979L378.175 41.1951L378.884 41.1867L379.522 41.1857L380.112 41.1942L380.666 41.2102L381.047 41.2158L381.576 41.2055L381.96 41.1961L382.239 41.1951L385.004 41.2111L385.02 41.2092L385.043 41.2017L385.079 41.1886L385.113 41.1848L387.582 41.2158L387.639 41.212L387.712 41.1998L387.779 41.1876L387.83 41.1848L390.558 41.212L390.835 41.2102L391.202 41.1951L391.607 41.1904L391.968 41.1876L392.234 41.1679L392.352 41.1641L392.514 41.181L392.653 41.197L392.755 41.1989L393.106 41.1933L393.454 41.2055L393.542 41.2064L393.664 41.1979L393.83 41.1886L394.489 41.1904L395.148 41.2008L395.86 41.212H396.464L398.083 41.1876H398.394L398.832 41.1998L399.361 41.213L399.747 41.2083L400.51 41.1914L401.053 41.182L401.449 41.1679L401.539 41.1707L401.659 41.1857L401.824 41.2036L402.529 41.2139L403.49 41.2073L404.333 41.1998L404.95 41.2055L405.998 41.2167L407.07 41.2083L407.096 41.2064L407.166 41.1895L407.254 41.1829H407.466L408.269 41.1998L408.648 41.2026L409.025 41.1895L409.265 41.1848L409.591 41.1961L409.852 41.2055L410.042 41.2064L411.041 41.1895L412.059 41.1839L413.098 41.1914L414.156 41.2102L414.458 41.2139L416.598 41.2102L416.82 41.1998L417.081 41.1904L417.452 41.197L417.963 41.2111L418.507 41.2158L419.085 41.212L419.697 41.1998L420.087 41.1961L420.629 41.2045L421.243 41.212L421.682 41.2045L422.387 41.1876L423.105 41.1914L423.614 41.1961H423.759L425.107 41.1923L426.395 41.1979L427.623 41.212L428.79 41.2355L428.888 41.2318L428.972 41.2149L429.039 41.1857L429.09 41.1435L429.128 41.0862L429.15 41.0167L429.188 40.8589L429.235 40.6992L429.293 40.5367L429.36 40.3723L429.438 40.2051L429.527 40.0361L429.626 39.8642L429.735 39.6904L429.866 39.5035L430.005 39.3307L430.15 39.1738L430.306 39.0301L430.465 38.9033L430.635 38.7878L430.819 38.6798L431.017 38.5802L431.23 38.4882L431.464 38.4008L431.733 38.3116L432.062 38.2129L432.25 38.1697L432.435 38.1472L432.559 38.1444L432.685 38.151L432.816 38.1669L432.95 38.1923L433.085 38.227L433.23 38.2712L433.616 38.4121L433.868 38.5069L434.013 38.5642L434.152 38.6281L434.287 38.6995L434.415 38.7765L434.525 38.8507L434.63 38.9296L434.732 39.0141L434.83 39.1034L434.927 39.2011L435.02 39.3025L435.109 39.4096L435.197 39.5251L435.367 39.774L435.528 40.0502L435.685 40.3601L435.845 40.7161L435.883 40.8166L435.915 40.9246L435.943 41.043L435.966 41.166L435.983 41.2985L435.994 41.4356L436 41.5774L435.999 41.7221L435.994 41.8667L435.981 42.0114L435.964 42.1551L435.94 42.295L435.912 42.4284L435.877 42.5571L435.839 42.6773L435.797 42.79L435.692 43.0276L435.589 43.2418L435.485 43.4362L435.377 43.6156L435.262 43.7819L435.142 43.9359L435.016 44.0796L434.882 44.2121L434.754 44.3248L434.621 44.4281L434.42 44.5699L434.224 44.6977L434.03 44.8104L433.843 44.9099L433.701 44.9719L433.552 45.0227L433.39 45.064L433.218 45.095L433.037 45.1156L432.838 45.1279L432.614 45.1326L432.309 45.1316L432.089 45.1297L431.944 45.1232L431.797 45.1025L431.644 45.0677L431.49 45.0189L431.332 44.956L431.17 44.8789L431.003 44.786L430.828 44.6779L430.645 44.5634L430.366 44.384L430.264 44.3098L430.173 44.2374L430.089 44.1613L430.015 44.0843L429.945 44.0017L429.884 43.9171L429.742 43.6945L429.614 43.4776L429.498 43.2643L429.396 43.0558L429.307 42.8511L429.231 42.6519L429.169 42.4566L429.12 42.2659L429.104 42.2293L429.077 42.2002L429.042 42.1823L429.003 42.1785L428.637 42.1992L428.277 42.2002L427.302 42.187L426.351 42.1926L425.626 42.1992L424.626 42.1973L423.285 42.1964L422.775 42.203L422.308 42.2152L422.206 42.2133L422.064 42.202L421.937 42.1917L421.841 42.1889L420.659 42.1992L419.487 42.203L418.323 42.2011L417.169 42.1936H416.892L416.515 42.2011L415.974 42.2095L415.58 42.202L415.1 42.1879L414.571 42.1842L413.995 42.1917L413.371 42.2105L413.01 42.2161L412.645 42.2048L412.197 42.1879L411.708 42.1814L411.181 42.1823L410.615 42.1936L409.908 42.2039L408.942 42.1983L408.173 42.1936L407.606 42.1964L406.789 42.2002L405.957 42.1917L405.434 42.1889L404.721 42.1973L403.917 42.2067L403.33 42.2002L402.46 42.1879L401.268 42.1945L400.342 42.202L399.673 42.1983L398.585 42.1908L398.168 42.1945L397.834 42.203L397.521 42.2058L397.058 42.1955L396.656 42.1879L394.547 42.2002L392.328 42.1936L391.579 42.1973L391.032 42.202L390.626 42.1992L390.006 42.1926H389.377L388.74 42.1983L388.094 42.2095L387.746 42.2067L387.254 42.1936L386.746 42.187L385.681 42.1889L385.446 42.1945L385.208 42.2067L385.021 42.2105L384.766 42.2011L384.488 42.1917L383.985 42.187L383.405 42.1823L382.981 42.1842L382.598 42.1926L382.25 42.2077L382.01 42.2124L381.683 42.2011L381.339 42.1889L380.796 42.1879L380.039 42.1964L379.156 42.2058L378.518 42.2002L377.513 42.187L376.558 42.1936L375.903 42.1992L375.015 42.1964L374.162 42.1926L373.535 42.1973L372.693 42.2039L371.8 42.1955L370.887 42.1889L370.067 42.1992L369.647 42.2067L369.228 42.2058L367.575 42.1917L366.851 42.1992L366.278 42.2067L365.849 42.2011L365.451 42.1917L365.038 42.1889L364.158 42.1983L363.367 42.2077L362.496 42.1964L361.906 42.1898L361.103 42.1964L360.459 42.202L359.988 42.2002L358.01 42.1879L355.852 42.1908H355.687L355.109 42.1861L354.544 42.1898L354.04 42.1955L353.668 42.1814L353.537 42.1757H353.401L352.229 42.1936L351.051 42.202L349.868 42.2002L348.678 42.1889L348.49 42.1908L348.23 42.203L347.842 42.2171L347.694 42.2152L347.557 42.2067L347.329 42.1926L347.1 42.1898L346.18 42.1945L345.261 42.1861L345.152 42.1879L344.996 42.1973L344.825 42.2067L344.703 42.2086L343.868 42.1992L342.733 42.2002L341.688 42.202L340.917 42.1955L340.166 42.1898L339.252 42.1983L338.422 42.2048L337.564 42.1936L337.036 42.1889L336.331 42.1964L335.637 42.2048L335.127 42.1992L334.598 42.1898L334.076 42.1861L333.561 42.1879L333.051 42.1964L332.288 42.2048L331.485 42.1936L330.93 42.1879L330.169 42.1973L329.436 42.2067L328.905 42.202L328.073 42.1917L326.937 42.1964L325.975 42.2011L325.283 42.1964L324.594 42.1908L323.935 42.1955L323.214 42.203L322.588 42.2002L321.534 42.1917L320.433 42.1926L320.221 42.1973L320.009 42.2105L319.862 42.2152L319.662 42.2067L319.423 42.1983L318.558 42.1945L317.671 42.1898L317.331 42.1964L317.023 42.2077L316.705 42.2133L316.269 42.1992L315.804 42.1861L315.2 42.1879L314.582 42.2011L314.04 42.2095L313.496 42.202L312.642 42.1889L311.645 42.1955L310.766 42.2011L309.886 42.1908L309.37 42.1832L308.887 42.1842L308.439 42.1908L308.024 42.2058L307.624 42.2161L307.28 42.2058L307.001 42.1926L306.724 42.1879L305.584 42.1945L304.484 42.2011L303.674 42.1926L303.026 42.187L302.357 42.1926L301.461 42.2011L300.233 42.1964L298.734 42.1936H297.758L296.687 42.1908L295.598 42.1964L295.134 42.1973L293.981 42.1955L292.742 42.202L291.879 42.203L290.884 42.1917L290.219 42.1879L289.582 42.1983L288.934 42.2077L288.282 42.1983L287.584 42.1889L286.622 42.1955L285.75 42.202L285.118 42.1964L284.449 42.1898L283.517 42.1955L282.614 42.2002L281.974 42.1945L281.362 42.1889L280.529 42.1964L279.695 42.2039L279.082 42.1983L278.344 42.1917L277.326 42.1964L276.387 42.202L275.706 42.1973L274.611 42.1898L273.612 42.203L273.315 42.2039L272.909 42.1936L272.442 42.1823L272.098 42.1879L272.021 42.2002L271.954 42.2311L271.899 42.279L271.854 42.3448L271.742 42.5843L271.605 42.9196L271.504 43.1704L271.426 43.3508L271.349 43.5086L271.27 43.6494L271.185 43.7809L271.095 43.9012L270.998 44.0082L270.896 44.1059L270.73 44.2449L270.56 44.3774L270.385 44.5023L270.206 44.6206L269.936 44.7813L269.656 44.9278L269.477 45.002L269.282 45.0602L269.067 45.1034L268.834 45.1307L268.584 45.1429L268.31 45.1391L268.014 45.1203L267.684 45.0865L267.547 45.064L267.414 45.032L267.287 44.9888L267.163 44.9362L267.057 44.8808L266.803 44.7315L266.589 44.5953L266.4 44.4647L266.228 44.3332L266.074 44.1999L265.935 44.0646L265.811 43.9265L265.703 43.7847L265.572 43.5921L265.465 43.425L265.372 43.2672L265.292 43.115L265.222 42.9647L265.163 42.8163L265.114 42.6679L265.075 42.5204L265.04 42.3392L265.019 42.1541L265.006 41.9541L265 41.7578L265.002 41.5671L265.011 41.3802L265.027 41.197L265.05 41.0185L265.081 40.8448L265.118 40.6757L265.149 40.5639L265.185 40.4531L265.228 40.3432L265.277 40.2343L265.332 40.1262L265.392 40.0182L265.532 39.806L265.666 39.6247L265.784 39.4725L265.898 39.3373L266.01 39.2152L266.121 39.1043L266.234 39.0038L266.351 38.9099L266.471 38.8254L266.658 38.7126L266.857 38.614L267.241 38.4534L267.595 38.3228L267.917 38.2242L268.066 38.1866L268.208 38.1566L268.35 38.1406L268.5 38.1425L268.661 38.1622L268.832 38.1998L269.167 38.3003L269.52 38.4243L269.89 38.5736L270.277 38.7474L270.388 38.8066L270.489 38.8751L270.579 38.9522L270.659 39.0386L270.76 39.1541L270.905 39.3053L271.055 39.4622L271.158 39.5815L271.245 39.697L271.315 39.8116L271.479 40.1262L271.623 40.44L271.749 40.7546L271.857 41.0683L271.887 41.135L271.93 41.1848L271.964 41.2073L272.002 41.2242L272.046 41.2346L272.094 41.2393L272.702 41.244L273.539 41.228L274.221 41.2139L274.721 41.212H275.779L276.802 41.1895L277.145 41.182H277.499L277.863 41.1886L278.237 41.2026L278.572 41.2139L278.923 41.2158L279.292 41.2092L279.677 41.1951L279.894 41.1886L280.136 41.1876L280.773 41.2017L281.31 41.2158L281.701 41.2149L282.483 41.2026L283.269 41.1979L284.059 41.1998L284.855 41.2102H285.191L285.708 41.1989L286.452 41.1848L286.976 41.1914L287.742 41.2083L288.791 41.2111L289.819 41.213L291.262 41.2196L292.538 41.2055L292.779 41.1886L292.934 41.1745L293.044 41.1707L293.141 41.1735L293.227 41.1848L293.393 41.2092L293.559 41.2149L295.526 41.1886L296.112 41.1895L296.735 41.2026L297.307 41.2102L297.944 41.1979L298.435 41.1867L298.939 41.1857L299.456 41.1933L299.986 41.2102L300.321 41.2149L300.803 41.2092L301.432 41.1933L302.21 41.167L302.343 41.1698L302.521 41.1904L302.676 41.2092L302.789 41.2149L303.355 41.2186L304.281 41.2205L304.635 41.2139L304.955 41.2017L305.32 41.1951L305.77 41.2083L306.169 41.2224L306.593 41.228L307.045 41.2252L307.522 41.2149L308.358 41.1998L309.28 41.2026L309.839 41.2055L310.406 41.2017L310.977 41.1914L311.556 41.1745L311.711 41.1754L311.973 41.1857L312.188 41.1933L312.401 41.1942L314.747 41.1895L314.84 41.1933L314.965 41.2055L315.101 41.2186L315.199 41.2214L316.18 41.2111L317.236 41.2092L317.571 41.1979L317.903 41.1857L318.03 41.1886L318.149 41.197L318.335 41.2111L318.527 41.2149L321.103 41.2036L323.689 41.1848L323.94 41.1876L324.284 41.1998L324.79 41.2158L324.982 41.2139L325.158 41.2064L325.422 41.1933L325.716 41.1848L326.482 41.1857L326.994 41.1876L327.511 41.197L327.911 41.2045L328.441 41.2017L329.761 41.1942L331.168 41.2064L331.897 41.2083L332.593 41.1914L333.029 41.1857L333.624 41.1998L334.126 41.213H334.493L335.333 41.2017L336.176 41.1979L337.021 41.2017L337.868 41.213L337.892 41.2102L337.914 41.2017L337.931 41.1942L337.943 41.1933L339.042 41.1895L340.173 41.2017L340.611 41.2036L341.21 41.1951L341.845 41.1867L342.309 41.1895L342.44 41.1876L342.576 41.1773L342.728 41.1698L342.892 41.1792L343.181 41.2017L343.486 41.213H343.811L344.152 41.2026L344.484 41.1904L344.834 41.1857L345.197 41.1867L345.577 41.1942L346.287 41.2083L346.969 41.2064L349.091 41.1876L351.125 41.1904L351.431 41.1857L351.732 41.1679L351.845 41.1613L351.957 41.1623L352.073 41.1688L352.188 41.182L352.345 41.1998L352.517 41.2111L352.71 41.2158H352.974L353.392 41.2186L353.639 41.2242H353.876L354.104 41.2177L354.321 41.2064L354.658 41.1886L355.03 41.1782L355.441 41.1773L356.001 41.1829L356.74 41.1886L356.897 41.1914L357.113 41.2017L357.334 41.213L357.494 41.2158L357.639 41.2111L357.772 41.1979L357.989 41.1782L358.209 41.1735L359.543 41.1895H360.846L361.257 41.1914L361.832 41.2008L362.653 41.213L363.249 41.2064L363.756 41.1961L364.207 41.1989L365.04 41.212L365.805 41.2149L366.506 41.2102L367.139 41.1951L367.518 41.1904L367.916 41.2017L368.192 41.2102L368.495 41.213L369.28 41.2008L369.996 41.1886L370.518 41.1961L371.129 41.213L371.7 41.2186L372.241 41.213L372.757 41.1961L373.23 41.1857L373.873 41.1942L374.59 41.2017L375.528 41.1904L376.438 41.1679ZM268.825 39.2471L268.674 39.2368L268.524 39.233L268.376 39.2339L268.232 39.2414L268.092 39.2546L267.955 39.2743L267.821 39.2997L267.69 39.3307L267.564 39.3673L267.443 39.4096L267.324 39.4575L267.209 39.512L267.098 39.5721L266.991 39.6378L266.891 39.7092L266.793 39.7853L266.677 39.8895L266.567 40.0041L266.466 40.1253L266.371 40.2568L266.285 40.3949L266.206 40.5414L266.135 40.6954L266.071 40.8589L266.018 41.0204L265.977 41.1792L265.945 41.336L265.924 41.4919L265.913 41.645V41.7963L265.924 41.9456L265.945 42.0931L265.98 42.2537L266.029 42.4124L266.09 42.5683L266.164 42.7214L266.26 42.8924L266.362 43.0539L266.471 43.207L266.585 43.3498L266.706 43.4841L266.833 43.6091L266.967 43.7246L267.106 43.8307L267.261 43.9284L267.427 44.0111L267.603 44.0778L267.791 44.1285L267.991 44.1632L268.202 44.1829L268.423 44.1867L268.656 44.1754L268.827 44.1567L268.992 44.1294L269.144 44.0937L269.288 44.0496L269.42 43.9989L269.541 43.9397L269.654 43.8721L269.754 43.7978L270.043 43.5452L270.316 43.2794L270.381 43.2089L270.438 43.1357L270.493 43.0558L270.543 42.9722L270.59 42.8821L270.631 42.7891L270.669 42.6895L270.702 42.5871L270.756 42.3636L270.793 42.1213L270.814 41.8573L270.819 41.5652L270.811 41.3567L270.79 41.1576L270.758 40.9678L270.712 40.7875L270.655 40.6156L270.585 40.4531L270.502 40.3L270.408 40.1563L270.329 40.0567L270.245 39.9609L270.154 39.8717L270.056 39.7862L269.91 39.6735L269.763 39.5749L269.614 39.4885L269.464 39.4143L269.312 39.3542L269.16 39.3063L269.005 39.2715L268.851 39.2499L268.825 39.2471ZM433.592 39.4349L433.4 39.3626L433.199 39.3053L432.991 39.264L432.777 39.2377L432.56 39.2283L432.343 39.2349L432.129 39.2574L431.917 39.2969L431.717 39.3513L431.526 39.419L431.343 39.5026L431.173 39.5993L431.013 39.7083L430.869 39.8294L430.736 39.9647L430.618 40.1093L430.562 40.1901L430.476 40.3188L430.325 40.5499L430.226 40.7217L430.152 40.8842L430.098 41.0467L430.065 41.2017L430.047 41.3651L430.038 41.5802L430.039 41.769L430.048 41.9428L430.068 42.1062L430.096 42.2593L430.136 42.4049L430.186 42.5411L430.247 42.6698L430.33 42.821L430.422 42.9685L430.515 43.1084L430.617 43.2427L430.72 43.3677L430.828 43.486L430.94 43.595L431.056 43.6964L431.172 43.7875L431.294 43.8711L431.416 43.9444L431.543 44.0101L431.669 44.0646L431.799 44.1116L431.929 44.1473L432.064 44.1754L432.237 44.1961L432.41 44.2017L432.587 44.1914L432.765 44.166L432.952 44.1332L433.277 44.0721L433.399 44.0421L433.511 44.0082L433.616 43.9688L433.713 43.9247L433.806 43.873L433.893 43.8166L434.086 43.6654L434.261 43.501L434.417 43.3245L434.488 43.2315L434.554 43.1347L434.657 42.9628L434.747 42.7816L434.822 42.5909L434.883 42.3908L434.943 42.1607L434.983 41.9813L435.01 41.8197L435.026 41.6695L435.031 41.5276L435.024 41.3961L435.005 41.2759L434.974 41.1651L434.891 40.9434L434.795 40.7189L434.686 40.4926L434.564 40.2634L434.474 40.1197L434.372 39.9844L434.295 39.8999L434.214 39.8219L434.127 39.7468L434.034 39.6773L433.935 39.6115L433.827 39.5486L433.714 39.4904L433.592 39.4349Z" fill="#D5A829"/>
<path d="M367.32 46.3709L367.634 46.3624L368.176 46.3512L368.382 46.3549L368.573 46.3643L368.839 46.3746L369.107 46.369L369.464 46.3596L369.953 46.3652L370.4 46.3699L370.731 46.3643L371.075 46.3558H371.418L371.76 46.3634L372.101 46.3793L372.262 46.3784L372.469 46.3587L372.592 46.353L372.764 46.3662L372.875 46.3765L372.955 46.3784L373.82 46.3671L374.694 46.3643L375.578 46.3699L376.474 46.384L376.52 46.3803L376.563 46.3671L376.628 46.3521H376.644L378.666 46.3634L379.666 46.3605L380.659 46.3521L380.917 46.353L381.271 46.3634L381.728 46.3746L382.064 46.3709L382.372 46.3662L382.798 46.3699L383.379 46.3728L383.601 46.3662L383.806 46.3549L383.942 46.3483L384.078 46.3502L384.212 46.3596L384.345 46.3765L384.466 46.3981L384.495 46.4009L384.538 46.3906L384.579 46.3784L384.627 46.3737L385.271 46.3793H385.912L386.551 46.3728L387.188 46.3615L387.278 46.3652L387.398 46.3821L387.518 46.3991L387.606 46.4019L387.682 46.3934L387.751 46.3709L387.763 46.3652L387.774 46.3605L387.806 46.3587L387.836 46.3709L387.858 46.3944L387.868 46.4244L387.9 46.7785L387.91 47.0368V47.2961L387.904 47.3233L387.888 47.3468L387.865 47.3618L387.837 47.3674L362.982 47.3684L362.895 47.3787L362.855 47.3919L362.82 47.4097L362.786 47.4332L362.756 47.4614L362.706 47.5337L362.535 47.822L362.389 48.0644L362.295 48.2485L362.161 48.5209L362.065 48.6993L361.964 48.8759L361.738 49.2347L361.475 49.6114L361.117 50.0885L360.904 50.3534L360.601 50.7019L360.373 50.9611L360.211 51.1555L360.083 51.3049L359.95 51.4439L359.813 51.5744L359.669 51.6947L359.517 51.8243L359.32 52.0121L359.065 52.2526L358.961 52.339L358.861 52.4132L358.653 52.5607L358.378 52.7654L357.938 53.0885L357.765 53.205L357.602 53.3083L357.264 53.5075L356.921 53.6981L356.572 53.8822L356.217 54.0579L355.904 54.1997L355.551 54.3415L355.153 54.4871L354.603 54.675L354.087 54.8506L353.792 54.9427L353.47 55.0234L353.117 55.0929L352.63 55.1728L352.244 55.2348L351.85 55.2911L351.474 55.3249L350.9 55.3522L350.379 55.3597L349.908 55.3475L349.694 55.3334L349.491 55.3155L348.765 55.2348L347.984 55.1399L347.684 55.0939L347.396 55.0328L347.12 54.9567L346.855 54.8666L346.192 54.6261L345.519 54.3988L345.267 54.3068L345 54.1865L344.713 54.04L344.326 53.824L343.966 53.622L343.698 53.483L343.459 53.3562L343.216 53.2116L342.968 53.0481L342.715 52.8659L342.434 52.6508L342.162 52.4357L341.898 52.2169L341.645 51.999L341.399 51.7783L341.163 51.5566L340.934 51.3302L340.714 51.1039L340.501 50.8747L340.295 50.6408L340.096 50.405L339.904 50.1646L339.72 49.9223L339.541 49.6752L339.37 49.4244L339.205 49.169L338.971 48.8055L338.728 48.4457L338.601 48.2428L338.478 48.0137L338.356 47.7488L338.224 47.4285L338.209 47.4022L338.187 47.3825L338.16 47.3693L338.132 47.3646L313.075 47.3693L313.043 47.3646L313.019 47.3515L313.004 47.3299L312.996 47.2989L312.975 47.065L312.973 46.8386L312.987 46.6188L313.017 46.4056L313.024 46.3887L313.036 46.3746L313.052 46.3652L313.07 46.3624L313.684 46.3737L314.302 46.3775L314.923 46.3718L315.547 46.3577H315.739L316.003 46.369L316.245 46.3793L316.422 46.3803L317.642 46.3671L318.861 46.3624L319.983 46.3662L321.104 46.3775L321.23 46.3746L321.404 46.3634L321.608 46.3512H321.758L322.398 46.3718L323.057 46.3821L323.736 46.3793L324.433 46.3662L324.904 46.3587L325.382 46.3624L325.8 46.3662L326.329 46.3605L326.665 46.3652L326.918 46.3709L327.105 46.3681L327.417 46.3577L327.752 46.353L328.491 46.3605L329.398 46.3737L330.337 46.3671L331.138 46.3624L332.035 46.3709L332.396 46.3784L332.986 46.3887L333.422 46.3878L333.814 46.3775L334.167 46.3549L334.282 46.3483L334.394 46.3493L334.502 46.3558L334.607 46.369L334.791 46.3887H334.879L334.963 46.384L335.142 46.3746L337.138 46.3878L338.995 46.4122H339.399L339.955 46.3972L340.479 46.3821L340.864 46.3803L341.782 46.384L342.752 46.3803L343.055 46.3746L343.356 46.3596L343.57 46.3558L343.861 46.369L344.086 46.3803L344.253 46.3821L346.109 46.3728L346.269 46.369L346.49 46.3568L346.821 46.3408L347.067 46.3465L348.057 46.4075L348.439 46.4188L348.819 46.415L349.194 46.3953L349.566 46.3605L349.682 46.3521L349.812 46.3512L349.959 46.3587L350.119 46.3728L350.387 46.3915L350.667 46.3878L351.166 46.3784L351.571 46.3718L351.865 46.3549L352.031 46.3502L352.258 46.3652L352.44 46.3784L352.571 46.3793L353.211 46.3643L353.856 46.3596L355.296 46.3549L356.014 46.3558L356.738 46.3681L357.644 46.3821L358.575 46.3784L358.805 46.3709L359.032 46.3568L359.207 46.354L359.445 46.3728L359.657 46.3897L359.813 46.3915L360.14 46.3831L360.587 46.3793L361.183 46.3728L361.62 46.3549L361.817 46.3474L362.012 46.3493L362.205 46.3605L362.398 46.3803L362.563 46.3981L362.727 46.4094L362.886 46.4131L363.044 46.4113L363.35 46.4047H363.767L364.245 46.4028L364.594 46.3934L365.03 46.3812H365.495L366.313 46.384L367.32 46.3709ZM360.555 49.2535L360.727 49.0215L360.893 48.7857L361.052 48.5462L361.207 48.3039L361.435 47.9197L361.649 47.5281L361.658 47.5036L361.662 47.4783L361.66 47.4529L361.653 47.4285L361.64 47.406L361.622 47.3872L361.601 47.3731L361.576 47.3646L361.549 47.3609L356.041 47.3712L354.728 47.3703L352.933 47.3609L350.919 47.3505L349.44 47.3515L349.172 47.3656L348.906 47.3797L348.803 47.3778L348.707 47.3703L348.445 47.3487L348.174 47.344L346.4 47.3618L344.643 47.3703H342.901L341.175 47.3618L340.372 47.3656L339.559 47.3872L339.505 47.3984L339.458 47.4276L339.424 47.4708L339.405 47.5224L339.4 47.5722L339.402 47.6201L339.418 47.6943L339.45 47.7666L339.725 48.2372L340 48.6768L340.276 49.0901L340.557 49.4789L340.839 49.8405L341.126 50.1796L341.417 50.4943L341.713 50.7864L342.099 51.1358L342.501 51.4767L342.919 51.8083L343.355 52.1324L343.605 52.3042L343.885 52.4836L344.2 52.6715L344.637 52.9213L344.892 53.066L345.033 53.1421L345.196 53.22L345.379 53.2999L345.583 53.3825L346.056 53.5535L346.614 53.7338L347.041 53.8756L347.345 53.979L347.569 54.0485L347.768 54.102L347.95 54.1424L348.361 54.2128L348.787 54.2683L349.228 54.3105L349.684 54.3396L350.159 54.3547L350.651 54.3566L351.16 54.3443L351.693 54.319L352.179 54.2805L352.6 54.2288L352.794 54.1959L352.979 54.1593L353.155 54.117L353.322 54.071L353.453 54.0316L354.095 53.8381L354.561 53.6859L354.978 53.5375L355.35 53.3872L355.707 53.2285L356.063 53.0575L356.418 52.8744L356.771 52.679L357.103 52.4799L357.432 52.2629L357.758 52.0272L358.081 51.7717L358.452 51.4617L358.791 51.1687L359.096 50.8916L359.369 50.6314L359.652 50.3402L359.944 50.0134L360.245 49.6508L360.555 49.2535Z" fill="#D5A829"/>
</g>
<defs>
<filter id="filter0_d_112_69" x="-4" y="0" width="708" height="92" filterUnits="userSpaceOnUse" color-interpolation-filters="sRGB">
<feFlood flood-opacity="0" result="BackgroundImageFix"/>
<feColorMatrix in="SourceAlpha" type="matrix" values="0 0 0 0 0 0 0 0 0 0 0 0 0 0 0 0 0 0 127 0" result="hardAlpha"/>
<feOffset dy="4"/>
<feGaussianBlur stdDeviation="2"/>
<feComposite in2="hardAlpha" operator="out"/>
<feColorMatrix type="matrix" values="0 0 0 0 0 0 0 0 0 0 0 0 0 0 0 0 0 0 0.25 0"/>
<feBlend mode="normal" in2="BackgroundImageFix" result="effect1_dropShadow_112_69"/>
<feBlend mode="normal" in="SourceGraphic" in2="effect1_dropShadow_112_69" result="shape"/>
</filter>
</defs>
</svg>
